<?xml version="1.0" encoding="UTF-8" standalone="no"?>
<svg
   viewBox="0 0 24 24"
   width="24"
   height="24"
   version="1.1"
   id="svg8"
   sodipodi:docname="arrnorm.svg"
   inkscape:version="1.2 (dc2aedaf03, 2022-05-15)"
   inkscape:export-filename="arrnorm.png"
   inkscape:export-xdpi="256"
   inkscape:export-ydpi="256"
   xmlns:inkscape="http://www.inkscape.org/namespaces/inkscape"
   xmlns:sodipodi="http://sodipodi.sourceforge.net/DTD/sodipodi-0.dtd"
   xmlns:xlink="http://www.w3.org/1999/xlink"
   xmlns="http://www.w3.org/2000/svg"
   xmlns:svg="http://www.w3.org/2000/svg"
   xmlns:rdf="http://www.w3.org/1999/02/22-rdf-syntax-ns#"
   xmlns:cc="http://creativecommons.org/ns#"
   xmlns:dc="http://purl.org/dc/elements/1.1/">
  <metadata
     id="metadata12">
    <rdf:RDF>
      <cc:Work
         rdf:about="">
        <dc:format>image/svg+xml</dc:format>
        <dc:type
           rdf:resource="http://purl.org/dc/dcmitype/StillImage" />
      </cc:Work>
    </rdf:RDF>
  </metadata>
  <sodipodi:namedview
     pagecolor="#ffffff"
     bordercolor="#666666"
     borderopacity="1"
     objecttolerance="10"
     gridtolerance="10"
     guidetolerance="10"
     inkscape:pageopacity="0"
     inkscape:pageshadow="2"
     inkscape:window-width="2088"
     inkscape:window-height="1490"
     id="namedview10"
     showgrid="false"
     inkscape:zoom="21.06589"
     inkscape:cx="-6.360994"
     inkscape:cy="12.603313"
     inkscape:window-x="769"
     inkscape:window-y="352"
     inkscape:window-maximized="0"
     inkscape:current-layer="svg8"
     inkscape:showpageshadow="2"
     inkscape:pagecheckerboard="0"
     inkscape:deskcolor="#d1d1d1" />
  <defs
     id="defs3051">
    <style
       type="text/css"
       id="current-color-scheme">
      .ColorScheme-Text {
        color:#232629;
      }
      </style>
    <style
       type="text/css"
       id="current-color-scheme-6">
      .ColorScheme-Text {
        color:#232629;
      }
      .ColorScheme-Highlight {
        color:#3daee9;
      }
      </style>
    <path
       fill="url(#0)"
       id="H"
       d="m24 8c-8.863992 0-16 7.136008-16 16h16v-16" />
    <path
       fill="url(#3)"
       id="I"
       d="m408.57143 539.798c8.86399 0 16-7.13601 16-16h-16v16" />
    <path
       fill="url(#1)"
       id="J"
       d="m408.57143 539.798c-8.86399 0-16-7.13601-16-16h16v16" />
    <linearGradient
       id="3"
       y1="523.8"
       y2="539.8"
       x1="424.57"
       x2="408.57"
       gradientUnits="userSpaceOnUse">
      <stop
         stop-color="#c1cc00"
         id="stop856" />
      <stop
         offset="0.312"
         stop-color="#dfcd00"
         id="stop858" />
      <stop
         offset="0.562"
         stop-color="#f0cc00"
         id="stop860" />
      <stop
         offset="0.75"
         stop-color="#fd8c08"
         id="stop862" />
      <stop
         offset="1"
         stop-color="#f25c13"
         id="stop864" />
    </linearGradient>
    <linearGradient
       id="0"
       y1="24"
       y2="8"
       x1="8"
       x2="24"
       gradientUnits="userSpaceOnUse">
      <stop
         stop-color="#e81877"
         id="stop867" />
      <stop
         offset="0.312"
         stop-color="#dd1d8c"
         id="stop869" />
      <stop
         offset="0.562"
         stop-color="#6d57b1"
         id="stop871" />
      <stop
         offset="0.75"
         stop-color="#2a78c1"
         id="stop873" />
      <stop
         offset="1"
         stop-color="#018dcb"
         id="stop875" />
    </linearGradient>
    <linearGradient
       id="2"
       y1="523.8"
       y2="507.8"
       x1="424.57"
       x2="408.57"
       gradientUnits="userSpaceOnUse">
      <stop
         stop-color="#bec900"
         id="stop878" />
      <stop
         offset="0.312"
         stop-color="#9ec80a"
         id="stop880" />
      <stop
         offset="0.562"
         stop-color="#71b93d"
         id="stop882" />
      <stop
         offset="0.75"
         stop-color="#35a48f"
         id="stop884" />
      <stop
         offset="1"
         stop-color="#018fca"
         id="stop886" />
    </linearGradient>
    <linearGradient
       id="1"
       y1="523.8"
       y2="539.8"
       x1="392.57"
       x2="408.57"
       gradientUnits="userSpaceOnUse">
      <stop
         stop-color="#e51561"
         id="stop889" />
      <stop
         offset="0.312"
         stop-color="#e4156c"
         id="stop891" />
      <stop
         offset="0.562"
         stop-color="#e71e2c"
         id="stop893" />
      <stop
         offset="0.75"
         stop-color="#e8301e"
         id="stop895" />
      <stop
         offset="1"
         stop-color="#e6320e"
         id="stop897" />
    </linearGradient>
    <linearGradient
       inkscape:collect="always"
       xlink:href="#2"
       id="linearGradient950"
       gradientUnits="userSpaceOnUse"
       x1="424.57"
       y1="523.8"
       x2="408.57"
       y2="507.8" />
    <linearGradient
       inkscape:collect="always"
       xlink:href="#2"
       id="linearGradient952"
       gradientUnits="userSpaceOnUse"
       x1="424.57"
       y1="523.8"
       x2="408.57"
       y2="507.8" />
    <linearGradient
       inkscape:collect="always"
       xlink:href="#1"
       id="linearGradient954"
       gradientUnits="userSpaceOnUse"
       x1="392.57"
       y1="523.8"
       x2="408.57"
       y2="539.8" />
    <linearGradient
       inkscape:collect="always"
       xlink:href="#2"
       id="linearGradient956"
       gradientUnits="userSpaceOnUse"
       x1="424.57"
       y1="523.8"
       x2="408.57"
       y2="507.8" />
    <linearGradient
       inkscape:collect="always"
       xlink:href="#2"
       id="linearGradient1031"
       gradientUnits="userSpaceOnUse"
       x1="424.57"
       y1="523.8"
       x2="408.57"
       y2="507.8" />
  </defs>
  <path
     style="fill:currentColor;fill-opacity:1;stroke:none;stroke-width:1.14001"
     d="M 1.8926666,1.5472668 V 2.6872817 19.787504 h 1.1400149 9.2183105 l 0.13527,-1.140015 0.0059,-1.140015 3.571944,-4.052563 1.356532,-1.318086 L 14.432864,9.5273712 9.8728048,14.087429 8.7327898,12.947415 3.2108429,18.469363 3.0327155,18.647489 V 2.6872817 H 18.99289 V 13.485567 l 1.140014,0.06729 V 2.6872817 1.5472668 H 3.0326815 Z m 4.5600596,2.2800297 c -1.2631364,0 -2.2800299,1.0168935 -2.2800299,2.2800299 0,1.2631364 1.0168935,2.2800296 2.2800299,2.2800296 1.2631364,0 2.2800296,-1.0168932 2.2800296,-2.2800296 0,-1.2631364 -1.0168932,-2.2800299 -2.2800296,-2.2800299 z"
     class="ColorScheme-Text"
     id="path4"
     sodipodi:nodetypes="ccccccccccccccccccccccsssss" />
  <g
     transform="matrix(0.92874379,0,0,0.92875124,7.4490893,-949.26593)"
     id="g940">
    <g
       transform="matrix(0.38637,0.10353,-0.10353,0.38637,-92.63,796.68)"
       id="g910">
      <use
         xlink:href="#H"
         clip-path="url(#5)"
         transform="translate(384.57,499.8)"
         id="use902"
         x="0"
         y="0"
         width="100%"
         height="100%" />
      <use
         xlink:href="#J"
         clip-path="url(#6)"
         id="use904"
         x="0"
         y="0"
         width="100%"
         height="100%" />
      <path
         fill="url(#2)"
         d="m 408.57143,507.798 c 8.86399,0 16,7.13601 16,16 h -16 v -16"
         clip-path="url(#7)"
         id="path906"
         style="fill:url(#linearGradient1031)" />
      <use
         xlink:href="#I"
         clip-path="url(#8)"
         id="use908"
         x="0"
         y="0"
         width="100%"
         height="100%" />
    </g>
    <g
       opacity="0.7"
       transform="matrix(0.4,0,0,0.4,-152.43,831.84)"
       id="g920">
      <use
         filter="url(#4)"
         xlink:href="#H"
         clip-path="url(#9)"
         transform="translate(384.57,499.8)"
         id="use912"
         x="0"
         y="0"
         width="100%"
         height="100%" />
      <use
         filter="url(#4)"
         xlink:href="#J"
         clip-path="url(#A)"
         id="use914"
         x="0"
         y="0"
         width="100%"
         height="100%" />
      <use
         filter="url(#4)"
         xlink:href="#I"
         clip-path="url(#B)"
         id="use916"
         x="0"
         y="0"
         width="100%"
         height="100%" />
      <path
         fill="url(#2)"
         filter="url(#4)"
         d="m 408.57143,507.798 c 8.86399,0 16,7.13601 16,16 h -16 v -16"
         clip-path="url(#C)"
         id="path918"
         style="fill:url(#linearGradient952)" />
    </g>
    <use
       opacity="0.35"
       xlink:href="#H"
       clip-path="url(#9)"
       transform="matrix(0.28284,0.28284,-0.28284,0.28284,11,1027.79)"
       id="use922"
       x="0"
       y="0"
       width="100%"
       height="100%" />
    <path
       opacity="0.35"
       fill="url(#1)"
       d="m 408.57143,539.798 c -8.86399,0 -16,-7.13601 -16,-16 h 16 v 16"
       clip-path="url(#A)"
       transform="matrix(0.28284,0.28284,-0.28284,0.28284,43.591,777.65)"
       id="path924"
       style="fill:url(#linearGradient954)" />
    <use
       opacity="0.35"
       xlink:href="#I"
       clip-path="url(#B)"
       transform="matrix(0.28284,0.28284,-0.28284,0.28284,43.591,777.65)"
       id="use926"
       x="0"
       y="0"
       width="100%"
       height="100%" />
    <path
       opacity="0.35"
       fill="url(#2)"
       d="m 408.57143,507.798 c 8.86399,0 16,7.13601 16,16 h -16 v -16"
       clip-path="url(#C)"
       transform="matrix(0.28284,0.28284,-0.28284,0.28284,43.591,777.65)"
       id="path928"
       style="fill:url(#linearGradient956)" />
    <g
       transform="matrix(0.10353,0.38637,-0.38637,0.10353,171.08,829.27)"
       id="g938">
      <use
         opacity="0.3"
         xlink:href="#H"
         clip-path="url(#D)"
         transform="translate(384.57,499.8)"
         id="use930"
         x="0"
         y="0"
         width="100%"
         height="100%" />
      <use
         opacity="0.3"
         xlink:href="#J"
         clip-path="url(#E)"
         id="use932"
         x="0"
         y="0"
         width="100%"
         height="100%" />
      <use
         opacity="0.3"
         xlink:href="#I"
         clip-path="url(#F)"
         id="use934"
         x="0"
         y="0"
         width="100%"
         height="100%" />
      <path
         opacity="0.3"
         fill="url(#2)"
         d="m 408.57143,507.798 c 8.86399,0 16,7.13601 16,16 h -16 v -16"
         clip-path="url(#G)"
         id="path936"
         style="fill:url(#linearGradient950)" />
    </g>
  </g>
</svg>
